<?xml version="1.0" encoding="UTF-8" standalone="no"?><!DOCTYPE svg PUBLIC "-//W3C//DTD SVG 1.1//EN" "http://www.w3.org/Graphics/SVG/1.1/DTD/svg11.dtd"><svg width="100%" height="100%" viewBox="0 0 240 240" version="1.1" xmlns="http://www.w3.org/2000/svg" xmlns:xlink="http://www.w3.org/1999/xlink" xml:space="preserve" xmlns:serif="http://www.serif.com/" style="fill-rule:evenodd;clip-rule:evenodd;stroke-linecap:round;stroke-linejoin:round;stroke-miterlimit:1.5;"><path d="M138.308,10.18c43.697,-2.501 75.35,50.992 62.291,99.934c-13.086,49.04 -5.676,51.505 1.496,67.424c7.369,16.358 2.079,37.226 -9.617,42.42c-68.596,30.467 -122.775,10.613 -151.944,-10.899c-8.465,-6.243 -10.46,-27.181 1.496,-45.733c15.796,-24.511 7.189,-32.101 3.847,-43.809c-3.764,-13.186 -4.819,-21.412 0.855,-38.787c5.845,-17.9 9.719,-28.314 18.379,-42.207c13.943,-22.37 46.566,-39.713 73.198,-28.343Z" style="fill:#fff;stroke:#000;stroke-width:0.9px;"/><path d="M60.513,212.416c-10.133,-20.664 -8.109,-41.697 6.362,-63.107c-16.483,-35.86 -16.654,-54.121 -4.805,-59.412c5.58,36.631 46.732,48.58 125.378,34.512l-7.427,33.638c8.871,18.318 13.633,36.87 9.14,55.952c-43.269,19.18 -88.432,18.605 -128.647,-1.582Z" style="fill:#181818;"/><path d="M60.331,212.489c-5.412,-2.23 -11.122,-5.643 -16.056,-9.547c-5.545,-11.651 -3.249,-24.995 6.331,-39.26c8.484,-12.801 10.319,-26.368 4.33,-41.037c-7.371,-12.28 -6.455,-26.181 -0.404,-41.087c3.138,-12.23 9.068,-25.019 16.583,-38.125c21.011,-26.441 42.938,-36.395 65.992,-26.072c28.185,-3.566 52.441,19.209 58.47,59.41c1.559,13.894 0.887,27.163 -2.223,39.749c-8.624,24.019 -9.677,43.711 0,57.273c7.613,16.316 7.202,28.765 -0.684,37.612c-2.412,2.269 -4.924,3.531 -7.522,3.932c3.806,-9.627 3.045,-17.731 0.684,-25.303c-0.743,15.444 -7.394,24.947 -16.355,31.053c8.656,-16.924 9.648,-34.03 2.336,-45.243c-6.493,-9.957 -7.497,-22.669 -2.223,-38.723c5.096,-0.879 9.344,-4.444 13.319,-8.875c11.696,-12.556 8.653,-21.258 1.821,-26.89c-1.845,-1.521 -6.214,-1.321 -9.426,-0.518c-2.948,-0.099 -5.913,-0.776 -8.301,-2.556c-14.033,-7.738 -25.005,-22.768 -31.008,-51.049c-5.462,-5.535 -11.299,-6.303 -17.508,-2.315c-9.477,-7.616 -18.515,-5.586 -27.058,7.339c-1.964,2.911 -4.441,7.978 -7.338,14.81c-2.811,7.189 -7.086,13.646 -12.885,19.341c-9.432,10.414 -18.229,12.707 -14.355,29.657c0,0 0.572,5.513 5,10.092c6.315,6.53 9.149,14.935 7.563,25.63c-1.362,5.246 -5.036,11.37 -8.701,20.063c-5.569,13.21 -4.535,27.219 0.794,36.686l-1.178,3.954Z" style="fill:#2c2c2a;"/><path d="M61.147,96.587c-1.207,8.309 0.62,14.988 7.857,18.763c1.821,-10.601 4.609,-18.852 1.994,-28.32l-9.85,9.557Z" style="fill:#ffdac7;"/><g><path d="M167.007,56.629c0.995,-0.171 2.007,0.876 2.257,2.336c0.25,1.46 -0.355,2.783 -1.35,2.954c-0.995,0.171 -2.007,-0.876 -2.257,-2.336c-0.25,-1.46 0.355,-2.783 1.35,-2.954Z" style="fill:#585858;"/><path d="M172.336,51.522c1.338,-0.412 3.178,1.706 4.108,4.726c0.93,3.02 0.599,5.806 -0.739,6.218c-1.338,0.412 -3.178,-1.706 -4.108,-4.726c-0.93,-3.02 -0.599,-5.806 0.739,-6.218Z" style="fill:#585858;"/><path d="M181.316,45.219c-2.984,-1.282 -4.533,-0.244 -4.733,2.667c-0.416,6.07 2.629,11.639 5.478,13.165c2.114,1.133 3.989,0.461 5.306,-1.721c3.52,8.131 6.74,18.646 9.403,27.328c-1.54,-21.408 -9.896,-44.216 -24.798,-58.19l9.343,16.751Z" style="fill:#585858;"/></g><g><path d="M51.745,90.117c4.984,-8.868 11.43,-24.339 17.787,-37.394c0.387,2.197 2.074,3.496 4.762,0.98c3.369,-3.153 5.895,-7.326 6.442,-10.924c0.363,-2.387 -0.724,-3.295 -3.081,-3.571c10.578,-15.28 25.34,-21.659 40.353,-25.805c-21.109,2.082 -38.787,14.759 -51.749,38.269c-4.838,9.899 -9.675,23.13 -14.513,38.444Z" style="fill:#5d5d5d;"/><path d="M82.629,47.012c0.884,0.51 0.435,2.946 -1.003,5.437c-1.437,2.491 -3.321,4.099 -4.205,3.589c-0.884,-0.51 -0.435,-2.946 1.003,-5.437c1.437,-2.491 3.321,-4.099 4.205,-3.589Z" style="fill:#5d5d5d;"/><path d="M85.974,52.156c0.914,0.417 1.162,1.84 0.554,3.176c-0.609,1.336 -1.846,2.083 -2.76,1.667c-0.914,-0.417 -1.162,-1.84 -0.554,-3.176c0.609,-1.336 1.846,-2.083 2.76,-1.667Z" style="fill:#5d5d5d;"/></g><g><path d="M101.611,153.403c5.955,0.139 6.558,-2.307 5.737,-7.207c4.265,1.454 10.961,1.307 19.146,0.179c-1.059,5.603 0.39,8.894 5.45,8.856c-7.171,18.455 -29.149,12.74 -30.332,-1.829Z" style="fill:#fcd8c0;"/><path d="M107.455,150.069c2.988,3.909 9.525,4.326 16.529,1.327c1.194,3.83 3.395,6.054 7.171,5.772l0.932,-2.295c-5.407,0.656 -6.486,-2.949 -5.772,-8.318c-7.285,1.002 -13.713,1.03 -18.895,-0.359l0.036,3.872Z" style="fill:#efa58c;"/><path d="M101.598,153.239c6.681,0.296 6.23,-2.41 5.834,-6.907" style="fill:none;stroke:#000;stroke-width:0.8px;"/><path d="M126.437,146.358c-0.575,6.651 -0.388,8.225 5.479,8.685" style="fill:none;stroke:#000;stroke-width:0.8px;"/></g><g><path d="M175.219,101.326c11.169,-4.311 19.934,6.467 13.585,19.87c-4.16,8.782 -16.801,11.28 -23.879,7.983c-15.147,13.446 -33.8,18.712 -55.074,17.861c-12.404,-3.468 -22.825,-8.82 -31.494,-15.836c-6.145,-4.973 -8.585,-10.277 -8.927,-15.642c-0.115,-1.795 0.006,-3.596 0.3,-5.394c2.707,-7.693 3.084,-15.559 1.397,-23.618l-0.052,-0.247c6.25,-4.731 12.161,-15.319 17.851,-29.76c0.801,-1.454 1.589,-2.824 2.364,-4.111c7.552,-10.242 16.756,-11.876 27.214,-7.051c6.692,-1.77 12.596,-0.926 17.758,2.735c3.284,10.336 4.71,16.516 9.778,26.429c5.705,11.16 13.924,20.72 22.776,24.826c-0.064,5.429 -0.791,10.123 -2.324,14.512c3.701,-3.453 6.742,-7.637 8.73,-12.558Z" style="fill:#fcd8be;stroke:#000;stroke-width:1.2px;"/><path d="M72.249,86.138l1.008,1.176c6.399,-5.728 11.424,-12.758 15.455,-21.063c6.09,-12.547 15.804,-19.474 25.108,-23.253c-7.877,-3.637 -15.64,-2.343 -23.33,11.764c-6.229,12.826 -11.413,24.511 -18.241,31.375Z" style="fill:#eda88b;"/><path d="M168.869,103.251c-11.155,-2.326 -27.839,-23.704 -32.825,-39.618c-3.067,-9.789 -7.469,-15.628 -13.48,-19.607l13.393,3.414c2.485,8.999 5.434,16.978 8.666,24.334c7.559,15.159 15.956,23.609 24.859,28.011l-0.613,3.466Z" style="fill:#f0a98f;"/><path d="M147.389,76.808c-4.755,-0.153 -9.033,-0.214 -11.714,0.76c-0.288,0.138 -0.628,0.106 -0.885,-0.083c-0.257,-0.189 -0.388,-0.505 -0.341,-0.821c0.452,-3.042 3.917,-4.382 11.453,-3.795l1.488,3.939Z" style="fill:#010101;"/><path d="M82.524,71.413c7.259,-1.181 13.281,-0.394 17.932,2.578c0.247,0.167 0.572,0.16 0.813,-0.016c0.24,-0.177 0.344,-0.485 0.258,-0.771c-1.612,-5.515 -6.481,-8.034 -18.152,-4.301l-0.852,2.51Z" style="fill:#040406;"/></g><g><g><path d="M73.929,217.868l1.471,-12.535c-6.247,-1.964 -12.007,-5.809 -16.946,-12.815c6.364,-7.252 12.029,-15.402 17.086,-24.334c6.701,-9.194 15.754,-13.331 26.19,-14.496c1.959,18.607 26.139,16.313 30.479,1.26c14.334,5.306 23.907,12.948 28.343,23.109l12.255,25.28c-6.009,4.454 -13.574,8.011 -24.439,9.664l1.12,12.36c-26.095,4.956 -51.331,2.863 -75.559,-7.493Z" style="fill:#fff;"/><path d="M149.677,225.842c-0.916,-5.528 -1.419,-9.901 -1.401,-12.815c3.904,-0.152 9.331,-1.622 16.036,-4.202c0.679,6.083 1.258,10.373 1.751,13.095c-5.462,1.677 -10.924,2.991 -16.386,3.921Z" style="fill:#fcdcc5;"/><path d="M148.627,216.038c4.611,1.404 10.094,0.58 16.386,-2.311l-0.91,-5.112c-6.511,2.959 -12,4.604 -15.896,4.202l0.42,3.221Z" style="fill:#f7ab94;"/><path d="M60.564,212.142l3.72,-12.683c3.3,2.796 7.055,4.62 11.072,6.221l-2.198,12.109l-12.594,-5.647Z" style="fill:#f7d8bb;"/><path d="M63.208,203.179c2.172,2.848 4.834,4.577 7.843,5.512c0.227,1.148 -0.092,5.049 -0.224,7.977l2.599,1.21c0.003,-3.637 0.714,-7.746 1.793,-12.101c-3.383,-0.846 -7.104,-2.874 -11.204,-6.23l-0.807,3.63Z" style="fill:#eca98f;"/><path d="M129.777,159.363c12.562,4.113 21.867,11.654 26.523,24.159c3.56,9.562 6.677,14.764 8.491,24.247c2.367,-0.523 5.044,-2.132 7.878,-4.289l-10.592,-22.802c-6.213,-12.719 -16.078,-21.331 -29.761,-25.647l-2.538,4.333Z" style="fill:#d6d6d6;"/><path d="M105.968,226.129c13.911,2.276 28.426,2.013 43.504,-0.613c-2.35,-16.97 -2.625,-27.717 -3.064,-38.952c-1.566,5.889 -2.49,12.931 -2.889,20.92c-0.642,12.869 -7.682,14.704 -14.147,15.896c-7.801,1.439 -16.84,2.721 -23.405,2.748Z" style="fill:#d3d3d5;"/><path d="M75.417,204.863c1.955,-10.638 3.91,-20.187 5.865,-25.56c-0.268,-0.337 -0.408,-1.635 -0.438,-3.764c-4.719,7.275 -6.961,19.707 -10.931,27.202l5.504,2.121Z" style="fill:#d3d2ce;"/></g><path d="M59.42,192.793c3.253,3.98 8.38,9.295 16.181,11.771c0.449,0.142 0.507,0.107 0.726,0.524c0.002,0.004 0.069,0.735 0.067,0.736c-0.157,0.188 -0.255,0.45 -0.473,0.564c-0.423,0.222 -0.451,0.159 -0.905,0.014c-7.284,-2.325 -12.846,-7.08 -17.488,-12.933c-0.029,-0.037 -0.371,-0.379 -0.308,-0.854c0.05,-0.377 0.347,-0.624 0.381,-0.66c4.867,-4.998 10.751,-13.682 17.4,-24.774c0.117,-0.196 0.222,-0.4 0.352,-0.588c0.09,-0.13 1.039,-1.18 1.131,-1.281c8.721,-9.649 14.063,-9.875 24.607,-12.863c0.032,-0.009 0.332,-0.094 0.401,-0.102c0.378,-0.045 0.922,0.181 1.001,0.814c0.123,0.984 0.389,6.816 5.063,10.282c3.688,2.735 8.751,2.921 11.87,2.309c5.978,-1.172 10.108,-5.528 11.634,-10.859c0.008,-0.028 0.063,-0.221 0.139,-0.333c0.149,-0.222 0.504,-0.477 0.974,-0.343c0.74,0.211 2.196,0.717 2.386,0.783c11.435,3.974 20.509,10.459 26.057,20.917c0.522,0.984 7.651,16 12.432,25.958c0.531,1.107 0.545,1.101 0.588,1.249c0.075,0.256 0.031,0.674 -0.358,0.923c-0.575,0.369 -2.216,1.321 -2.41,1.434c-13.847,8.037 -20.363,8.253 -22.975,8.075c-0.327,-0.022 -0.511,-0.236 -0.543,-0.272c-0.003,-0.003 -0.192,-0.575 -0.191,-0.577c0.09,-0.179 0.12,-0.406 0.272,-0.538c0.326,-0.282 0.37,-0.201 0.8,-0.179c7.787,0.401 19.76,-6.645 23.572,-8.95c-8.678,-18.024 -12.119,-25.334 -12.796,-26.583c-5.386,-9.946 -14.276,-16.392 -26.462,-20.309c-0.017,-0.005 -0.029,-0.009 -0.05,-0.016c-0.65,1.973 -2.667,6.76 -7.952,9.634c-0.7,0.381 -5.189,2.932 -11.806,1.714c-3.623,-0.667 -6.382,-2.291 -8.337,-4.55c-2.58,-2.981 -3.322,-6.567 -3.581,-8.538c-10.165,2.823 -14.887,3.27 -22.762,11.927c-0.51,0.56 -0.933,1.048 -1.042,1.173c-0.054,0.062 -0.115,0.118 -0.161,0.186c-0.341,0.506 -6.934,11.941 -13.235,20.125c-1.961,2.547 -3.389,4.131 -4.199,4.989Z"/><path d="M136.992,17.935c38.772,-8.714 71.944,49.531 54.828,102.315c-6.191,19.093 -9.571,37.244 1.71,54.366c6.119,9.288 9.736,33.458 -5.264,39.724c-51.249,21.41 -99.18,17.089 -142.779,-10.156c-5.873,-3.67 -5.344,-24.343 2.009,-35.574c11.199,-17.106 15.039,-30.493 6.151,-48.678c-5.762,-11.789 -5.359,-22.643 -0.479,-35.584c4.914,-13.032 8.293,-24.279 13.506,-33.509c20.182,-35.728 54.232,-43.953 70.317,-32.904Z" style="fill:none;stroke:#000;stroke-width:2px;"/><path d="M64.156,199.107c-1.23,4.551 -2.499,9.023 -3.825,13.382" style="fill:none;stroke:#000;stroke-width:1.4px;"/><path d="M56.919,116.061c-0.051,-0.068 -0.166,-0.066 -0.217,-0.133c-0,-0 -0.135,-0.531 -0.266,-1.116c-3.407,-15.226 5.116,-18.815 14.254,-28.674c0.164,-0.177 0.385,-0.183 0.421,-0.184c0.004,-0 0.428,0.161 0.428,0.163c0.062,0.139 0.181,0.265 0.185,0.418c0.004,0.152 -0.088,0.294 -0.162,0.427c-0.029,0.053 -1.048,1.06 -1.14,1.151c-9.038,8.932 -16.779,12.35 -13.422,27.507c0.047,0.21 0.054,0.209 0.051,0.226c-0.024,0.129 -0.109,0.087 -0.133,0.217Z"/><path d="M60.965,96.496c-0.796,9.81 1.97,16.188 8.464,19.066" style="fill:none;stroke:#000;stroke-width:1px;"/><path d="M91.288,52.432c11.645,-19.338 20.417,-20.044 27.265,-8.273c8.366,-8.589 14.366,-6.434 17.344,2.823c0.123,0.383 0.244,0.761 0.362,1.133c-5.162,-3.661 -11.066,-4.505 -17.758,-2.735c-10.458,-4.826 -19.662,-3.192 -27.214,7.051Z" style="fill:#1a1a1a;stroke:#000;stroke-width:1.2px;"/><path d="M168.813,99.372c2.108,0.978 4.252,1.647 6.406,1.954c-1.987,4.921 -5.029,9.105 -8.73,12.558c1.533,-4.389 2.26,-9.083 2.324,-14.512Z" style="fill:#2a2a2b;stroke:#000;stroke-width:1.2px;"/><path d="M147.219,55.768c3.765,16.108 13.277,35.422 30.738,43.593c2.976,0.83 5.654,0.261 8.056,-0.632c-17.008,-4.264 -30.189,-17.969 -38.795,-42.961Z" style="fill:#1b1b1b;stroke:#000;stroke-width:0.1px;"/><g><path d="M118.94,38.36c0.036,0.112 0.136,0.191 0.253,0.201c0.117,0.01 0.228,-0.051 0.283,-0.155c4.105,-7.806 9.158,-14.76 14.398,-16.987c0.155,-0.06 0.265,-0.199 0.288,-0.363c0.023,-0.164 -0.046,-0.328 -0.178,-0.428c-2.542,-1.869 -6.111,-0.112 -9.853,3.565c-0.116,0.114 -0.274,0.174 -0.437,0.165c-0.162,-0.009 -0.314,-0.085 -0.417,-0.211c-2.557,-3.116 -5.378,-4.5 -8.634,-3.022c-0.07,0.032 -0.114,0.104 -0.11,0.181c0.004,0.077 0.054,0.145 0.127,0.17c2.907,1.02 4.925,2.897 4.948,6.701c0.001,0.129 -0.06,0.252 -0.163,0.33c-0.103,0.078 -0.237,0.103 -0.362,0.067c-3.762,-1.087 -6.577,-1.311 -8.336,-0.57c-0.08,0.042 -0.123,0.131 -0.106,0.219c0.017,0.088 0.09,0.155 0.179,0.164c3.128,0.509 6.207,4.054 8.119,9.975Z" style="fill:#1b1b1b;stroke:#1b1b1b;stroke-width:0.1px;"/><path d="M129.122,24.125c0.084,0.094 0.223,0.061 0.132,0.148c-2.909,2.789 -4.777,5.373 -6.285,8.312c-0.084,0.164 -0.259,0.214 -0.287,0.222c-0.004,0.001 -0.357,-0.038 -0.358,-0.04c-0.075,-0.094 -0.19,-0.167 -0.223,-0.282c-0.033,-0.115 0.009,-0.241 0.039,-0.357c0,-0 0.218,-0.365 0.481,-0.774c2.222,-3.455 4.71,-5.741 6.501,-7.23Z"/></g><path d="M83.051,171.097l0.422,0.125c-3.272,11.965 -6.485,27.439 -8.738,47.247c-0.053,0.467 -0.39,0.725 -0.447,0.768c-0.118,0.09 -0.256,0.16 -0.399,0.198c-0.472,0.127 -0.832,-0.083 -0.894,-0.119c-0.409,-0.238 -0.513,-0.628 -0.531,-0.695c-0.01,-0.036 -0.065,-0.241 -0.031,-0.459c3.527,-23.015 7.94,-38.585 10.618,-47.065Z"/><path d="M164.165,208.194l1.905,13.878" style="fill:none;stroke:#000;stroke-width:1.2px;"/><path d="M146.011,186.84l0.567,-0.02c0.834,16.047 2.174,28.21 3.824,38.839c0.057,0.369 -0.152,0.647 -0.187,0.693c-0.002,0.003 -0.61,0.363 -0.612,0.363c-0.23,-0.06 -0.5,-0.038 -0.69,-0.181c-0.19,-0.143 -0.283,-0.39 -0.363,-0.614c-0,-0 -0.172,-1.397 -0.356,-3.035c-1.656,-14.813 -2.043,-28.454 -2.184,-36.045Z"/><path d="M80.114,169.493c0.094,0.092 0.236,0.124 0.33,0.217c0.018,0.017 0.175,0.787 0.189,0.855c0.584,2.861 0.798,6.12 0.945,8.664c0.013,0.22 -0.127,0.368 -0.15,0.393c-0.003,0.003 -0.384,0.174 -0.386,0.173c-0.13,-0.049 -0.289,-0.054 -0.39,-0.15c-0.101,-0.096 -0.138,-0.246 -0.173,-0.381c-0.033,-0.126 0.125,-5.227 -0.533,-9.161c-0.044,-0.263 -0.055,-0.263 -0.048,-0.279c0.05,-0.122 0.166,-0.208 0.216,-0.33Z"/><path d="M154.58,168.665c-4.049,5.063 -6.84,10.781 -8.275,16.404" style="fill:none;stroke:#000;stroke-width:0.8px;"/><path d="M97.216,154.437c2.339,24.423 33.054,23.415 39.594,2.289" style="fill:none;stroke:#000;stroke-width:0.8px;"/></g><g><path d="M131.195,96.278c-3.316,9.183 1.502,18.69 10.137,18.218c6.259,-0.342 11.143,0.16 15.241,-7.294c2.987,-14.93 -15.611,-23.912 -25.378,-10.924Z" style="fill:#fefefe;"/><path d="M154.875,89.84c-0.076,-0.011 -0.15,0.06 -0.226,0.049c-0.088,-0.012 -3.312,-2.173 -7.405,-3.061c-6.181,-1.342 -10.723,0.754 -13.42,2.441c-0.026,0.016 -0.048,0.047 -0.078,0.049c-0.092,0.006 -0.086,-0.039 -0.177,-0.033c0.039,-0.061 0.032,-0.144 0.071,-0.205c0.024,-0.038 0.655,-0.47 0.713,-0.51c6.399,-4.385 11.98,-2.964 14.78,-1.956c2.773,0.999 5.041,2.553 5.648,2.968c0.015,0.01 0.039,0.014 0.045,0.031c0.04,0.109 0.009,0.116 0.05,0.226Z"/><path d="M155.956,94.15c1.196,0.167 2.968,-0.242 5.21,-1.12c-0.842,1.658 -1.939,2.525 -3.529,3.137l-1.681,-2.017Z"/><path d="M130.448,97.577c5.907,-9.279 28.394,-8.701 25.658,10.252c1.886,-1.156 3.847,-2.691 5.882,-4.594c-5.246,-17.704 -27.508,-19.515 -31.54,-5.658Z"/><path d="M135.209,93.375c-7.098,7.214 -3.414,21.636 6.921,21.015c10.188,-0.612 13.626,-14.953 7.421,-21.295c-4.233,-4.326 -10.363,-3.764 -14.341,0.28Z" style="fill:#010101;"/><ellipse cx="138.338" cy="96.615" rx="3.557" ry="3.641" style="fill:#fff;"/><path d="M134.108,107.427c2.268,8.714 14.202,6.061 15.462,0.336c-0.945,-7.005 -14.293,-7.542 -15.462,-0.336Z" style="fill:#3f3d3e;"/><path d="M143.352,98.463c-0.746,1.854 -1.754,3.414 -3.697,3.921c1.606,0.84 2.39,2.427 2.353,4.762c1.005,-2.691 2.375,-3.826 3.978,-3.978c-1.783,-0.499 -2.493,-2.265 -2.633,-4.706Z" style="fill:#fff;"/></g><g><path d="M100.714,85.127c-0.058,-0.025 -0.13,-0.002 -0.188,-0.028c-0.096,-0.041 -2.636,-2.398 -5.982,-3.847c-4.832,-2.092 -8.824,-1.149 -11.759,0.305c-0.007,0.004 -0.014,0.012 -0.022,0.011c-0.074,-0.012 -0.071,-0.025 -0.145,-0.037c0.027,-0.042 0.01,-0.103 0.037,-0.145c0.001,-0.002 1.115,-0.814 2.479,-1.357c1.619,-0.645 5.718,-1.968 11.506,1.715c2.008,1.278 3.619,2.814 3.982,3.157c0.014,0.014 0.036,0.023 0.043,0.041c0.036,0.089 0.012,0.095 0.048,0.184Z"/><path d="M76.686,96.9c1.112,6.698 6.252,11.843 16.391,10.996c6.638,-0.554 8.7,-7.326 9.244,-14.492c-5.398,-13.905 -25.57,-11.306 -25.635,3.496Z" style="fill:#fdfdfd;"/><path d="M78.801,86.083c-1.211,-0.383 -1.765,-1.349 -2.052,-2.554c-0.037,-0.15 0.027,-0.307 0.158,-0.388c0.131,-0.081 0.3,-0.068 0.418,0.032c1.207,0.995 2.745,1.47 4.669,1.341l-3.193,1.569Z" style="fill:#020003;"/><path d="M76.676,97.359c0.02,0.019 0.048,0.025 0.073,0.016c0.026,-0.009 0.044,-0.032 0.047,-0.058c1.912,-14.377 17.139,-15.908 25.444,-3.85c0.046,0.067 0.133,0.093 0.207,0.061c0.075,-0.032 0.116,-0.112 0.099,-0.192c-2.859,-12.734 -20.937,-16.018 -29.43,-1.442c-0.025,0.043 -0.03,0.095 -0.014,0.142c0.714,2.032 2.036,3.836 3.572,5.323Z" style="fill:#020003;"/><path d="M87.89,85.292c-10.228,5.545 -8.341,22.674 3.316,22.543c7.681,-0.087 11.306,-7.78 9.77,-16.403c-3.394,-5.576 -8.224,-8.776 -13.087,-6.14Z" style="fill:#000201;"/><ellipse cx="87.957" cy="90.558" rx="3.563" ry="3.608" style="fill:#fefefe;"/><path d="M83.946,101.202c0.366,6.562 12.676,7.704 15.103,0.269c-1.691,-6.742 -14.144,-6.599 -15.103,-0.269Z" style="fill:#3d3d3d;"/><path d="M92.999,92.284c-0.691,2.189 -1.819,3.697 -3.585,4.213c1.63,0.62 2.358,2.218 2.555,4.392c0.587,-2.036 1.833,-3.268 3.496,-3.989c-1.934,-0.427 -2.445,-2.276 -2.465,-4.616Z" style="fill:#fafaf8;"/></g><g><path d="M110.219,110.594c1.807,-1.111 4.327,-0.163 4.301,1.492c-0.021,1.336 -2.476,1.864 -4.367,0.806l0.066,-2.298Z" style="fill:#f7ad92;"/><path d="M110.193,110.598c1.16,0.355 0.68,2.225 -0.036,2.337c-1.055,-0.202 -1.257,-1.892 0.036,-2.337Z"/></g><path d="M120.264,123.374c0.115,0.106 0.117,0.113 0.124,0.27c0.004,0.099 -0.055,0.192 -0.098,0.281c-0.002,0.005 -0.375,0.465 -0.806,0.869c-2.668,2.501 -6.852,3.688 -10.578,1.934c-2.486,-1.17 -3.688,-3.218 -4.041,-3.835c-0.205,-0.357 -0.114,-0.394 0.124,-0.73c0.001,-0.002 0.373,-0.067 0.377,-0.066c0.227,0.051 0.211,0.09 0.348,0.279c0.504,0.695 2.849,3.979 7.991,3.625c1.87,-0.129 4.139,-0.86 5.916,-2.515c0.161,-0.15 0.14,-0.206 0.36,-0.216c0.16,-0.007 0.167,-0.003 0.284,0.105Z"/><path d="M178.771,112.891c-0.103,-0.166 -0.085,-0.379 0.043,-0.526c1.119,-1.166 3.266,-1.701 5.555,-1.974c0.105,-0.012 0.192,-0.088 0.219,-0.19c0.027,-0.102 -0.012,-0.211 -0.098,-0.273c-5.477,-3.823 -15.207,4.07 -14.985,10.714c3.269,6.067 13.66,-0.605 9.265,-7.75Z" style="fill:#f4a087;"/></svg>